<svg xmlns="http://www.w3.org/2000/svg" xmlns:xlink="http://www.w3.org/1999/xlink" version="1.1" x="0px" y="0px" viewBox="0 0 512 640" style="enable-background:new 0 0 512 512;" xml:space="preserve"><g><g><g><path d="M446.01,450.412c-0.004,0-0.012,0-0.02,0h-380c-5.523,0-10-4.479-10-10c0-110.281,89.72-200.001,200-200.001     c110.064,0,199.649,89.362,199.999,199.347c0.014,0.217,0.021,0.434,0.021,0.654C456.01,445.934,451.533,450.412,446.01,450.412z      M76.265,430.412h359.451c-5.207-94.619-83.829-170.002-179.726-170.002S81.472,335.793,76.265,430.412z"/></g><g><path d="M255.99,260.41c-54.816,0-99.412-44.595-99.412-99.411s44.596-99.412,99.412-99.412     c54.815,0,99.412,44.596,99.412,99.412S310.806,260.41,255.99,260.41z M255.99,81.588c-43.788,0-79.412,35.624-79.412,79.412     s35.624,79.412,79.412,79.412s79.412-35.624,79.412-79.412S299.778,81.588,255.99,81.588z"/></g></g></g><text x="0" y="527" fill="#000000" font-size="5px" font-weight="bold" font-family="'Helvetica Neue', Helvetica, Arial-Unicode, Arial, Sans-serif">Created by Flatart</text><text x="0" y="532" fill="#000000" font-size="5px" font-weight="bold" font-family="'Helvetica Neue', Helvetica, Arial-Unicode, Arial, Sans-serif">from the Noun Project</text></svg>