<?xml version="1.0" standalone="no"?>
<!DOCTYPE svg PUBLIC "-//W3C//DTD SVG 20010904//EN"
 "http://www.w3.org/TR/2001/REC-SVG-20010904/DTD/svg10.dtd">
<svg version="1.0" xmlns="http://www.w3.org/2000/svg"
 width="200.000000pt" height="200.000000pt" viewBox="0 0 200.000000 200.000000"
 preserveAspectRatio="xMidYMid meet">

<g transform="translate(0.000000,200.000000) scale(0.100000,-0.100000)"
fill="#000000" stroke="none">
<path d="M470 1795 l0 -115 -75 0 -75 0 0 -75 0 -75 -115 0 -115 0 0 -60 0
-60 115 0 115 0 0 -100 0 -100 -115 0 -115 0 0 -55 0 -55 115 0 115 0 0 -100
0 -100 -115 0 -115 0 0 -55 0 -55 115 0 115 0 0 -100 0 -100 -115 0 -115 0 0
-60 0 -60 115 0 115 0 0 -75 0 -75 75 0 75 0 0 -115 0 -115 60 0 60 0 0 115 0
115 100 0 100 0 0 -115 0 -115 55 0 55 0 0 115 0 115 100 0 100 0 0 -115 0
-115 55 0 55 0 0 115 0 115 100 0 100 0 0 -115 0 -115 60 0 60 0 0 115 0 114
73 3 72 3 3 73 3 72 114 0 115 0 0 60 0 60 -115 0 -115 0 0 100 0 100 115 0
115 0 0 55 0 55 -115 0 -115 0 0 100 0 100 115 0 115 0 0 55 0 55 -115 0 -115
0 0 100 0 100 115 0 115 0 0 60 0 60 -115 0 -114 0 -3 73 -3 72 -72 3 -73 3 0
114 0 115 -60 0 -60 0 0 -115 0 -115 -100 0 -100 0 0 115 0 115 -55 0 -55 0 0
-115 0 -115 -100 0 -100 0 0 115 0 115 -55 0 -55 0 0 -115 0 -115 -100 0 -100
0 0 115 0 115 -60 0 -60 0 0 -115z m1004 -321 c14 -14 16 -70 16 -471 0 -411
-2 -458 -17 -475 -15 -17 -43 -18 -474 -18 -403 0 -459 2 -473 16 -14 14 -16
70 -16 474 0 404 2 460 16 474 14 14 70 16 474 16 404 0 460 -2 474 -16z"/>
<path d="M630 1000 l0 -380 370 0 370 0 0 380 0 380 -370 0 -370 0 0 -380z
m594 179 c20 -30 6 -63 -28 -67 -33 -4 -56 13 -56 42 0 47 57 63 84 25z m-206
-161 c32 -95 63 -183 66 -195 7 -22 4 -23 -38 -23 l-45 0 -17 55 -18 56 -50
-3 -49 -3 -17 -50 c-17 -50 -17 -50 -63 -53 l-47 -3 67 195 67 196 42 0 42 0
60 -172z m212 -83 l0 -135 -45 0 -45 0 0 135 0 135 45 0 45 0 0 -135z"/>
<path d="M901 1020 c-14 -42 -15 -40 15 -40 22 0 24 3 18 23 -14 47 -21 51
-33 17z"/>
</g>
</svg>
