<?xml version="1.0" standalone="no"?>
<!DOCTYPE svg PUBLIC "-//W3C//DTD SVG 20010904//EN"
 "http://www.w3.org/TR/2001/REC-SVG-20010904/DTD/svg10.dtd">
<svg version="1.0" xmlns="http://www.w3.org/2000/svg"
 width="200.000000pt" height="200.000000pt" viewBox="0 0 200.000000 200.000000"
 preserveAspectRatio="xMidYMid meet">

<g transform="translate(0.000000,200.000000) scale(0.100000,-0.100000)"
fill="#000000" stroke="none">
<path d="M341 1978 c-121 -327 -189 -500 -208 -528 -22 -33 -23 -43 -23 -215
0 -159 2 -184 19 -211 19 -31 19 -32 0 -60 -17 -26 -19 -49 -19 -209 0 -163 2
-183 20 -213 l20 -33 -20 -26 c-18 -24 -20 -40 -20 -205 0 -199 6 -224 63
-258 31 -19 56 -20 827 -20 771 0 796 1 827 20 57 34 63 59 63 258 0 165 -2
181 -20 205 l-20 26 20 33 c18 30 20 50 20 214 0 167 -2 183 -20 207 l-20 26
20 33 c18 30 20 50 20 213 0 175 -1 181 -24 216 -14 20 -66 146 -116 280 -51
134 -97 250 -102 257 -8 9 -151 12 -654 12 l-644 0 -9 -22z m1343 -251 c43
-114 77 -210 74 -212 -3 -3 -347 -4 -765 -3 l-760 3 81 213 80 212 605 -2 606
-3 79 -208z m126 -307 c18 -18 20 -33 20 -184 0 -146 -2 -166 -19 -187 l-19
-24 -792 0 -792 0 -19 24 c-17 21 -19 41 -19 187 0 151 2 166 20 184 20 20 33
20 810 20 777 0 790 0 810 -20z m0 -480 c18 -18 20 -33 20 -184 0 -146 -2
-166 -19 -187 l-19 -24 -786 -3 -787 -2 -24 24 c-25 25 -25 28 -25 191 0 152
2 167 20 185 20 20 33 20 810 20 777 0 790 0 810 -20z m0 -480 c18 -18 20 -33
20 -185 0 -163 0 -166 -25 -190 l-24 -25 -779 0 c-773 0 -780 0 -806 21 l-26
20 0 170 c0 156 2 171 20 189 20 20 33 20 810 20 777 0 790 0 810 -20z"/>
<path d="M388 1334 c-35 -18 -58 -62 -58 -110 0 -28 8 -44 34 -70 29 -29 41
-34 81 -34 40 0 52 5 81 34 26 26 34 42 34 70 0 97 -91 155 -172 110z m90 -60
c26 -18 28 -50 5 -76 -20 -22 -51 -23 -75 -1 -24 21 -23 48 2 73 24 24 38 25
68 4z"/>
<path d="M1007 1253 c-13 -12 -7 -41 9 -47 24 -9 627 -7 642 3 8 5 12 17 10
27 -3 18 -19 19 -329 22 -179 1 -328 -1 -332 -5z"/>
<path d="M388 854 c-35 -18 -58 -62 -58 -110 0 -28 8 -44 34 -70 29 -29 41
-34 81 -34 40 0 52 5 81 34 26 26 34 42 34 70 0 97 -91 155 -172 110z m92 -64
c11 -11 20 -28 20 -37 0 -23 -30 -53 -53 -53 -26 0 -57 28 -57 52 0 22 34 58
55 58 8 0 24 -9 35 -20z"/>
<path d="M1004 765 c-4 -8 -4 -22 0 -30 5 -13 50 -15 323 -15 175 0 324 4 331
9 8 5 12 17 10 27 -3 18 -19 19 -331 22 -285 2 -328 0 -333 -13z"/>
<path d="M392 373 c-64 -31 -82 -117 -36 -172 48 -57 125 -58 177 -1 49 54 28
148 -38 176 -44 18 -62 17 -103 -3z m88 -63 c24 -24 26 -53 4 -74 -32 -33 -94
-10 -94 35 0 23 34 59 55 59 8 0 24 -9 35 -20z"/>
<path d="M1004 285 c-4 -8 -4 -22 0 -30 5 -13 48 -15 333 -13 l328 3 0 25 0
25 -328 3 c-285 2 -328 0 -333 -13z"/>
</g>
</svg>
