<?xml version="1.0" standalone="no"?>
<!DOCTYPE svg PUBLIC "-//W3C//DTD SVG 20010904//EN"
 "http://www.w3.org/TR/2001/REC-SVG-20010904/DTD/svg10.dtd">
<svg version="1.0" xmlns="http://www.w3.org/2000/svg"
 width="200.000000pt" height="200.000000pt" viewBox="0 0 200.000000 200.000000"
 preserveAspectRatio="xMidYMid meet">

<g transform="translate(0.000000,200.000000) scale(0.100000,-0.100000)"
fill="#000000" stroke="none">
<path d="M528 1907 c-15 -12 -32 -35 -38 -50 -6 -19 -10 -315 -10 -865 0 -822
0 -838 20 -870 37 -61 46 -62 495 -62 440 0 451 1 493 55 l22 28 0 859 0 860
-34 34 -34 34 -444 0 -443 0 -27 -23z m357 -47 c3 -6 52 -10 111 -10 63 0 104
4 104 10 0 14 295 13 321 0 14 -8 19 -21 19 -50 l0 -40 -450 0 -450 0 0 28 c0
15 7 38 16 50 15 21 21 22 169 22 92 0 156 -4 160 -10z m565 -800 l0 -640
-455 0 -455 0 0 640 0 640 455 0 455 0 0 -640z m0 -797 c0 -76 -4 -100 -17
-115 -15 -17 -42 -18 -438 -18 -314 0 -424 3 -433 12 -8 8 -12 48 -12 115 l0
103 450 0 450 0 0 -97z"/>
<path d="M1035 1268 c-22 -59 -135 -434 -135 -448 0 -25 19 -36 34 -19 18 20
148 448 142 465 -7 17 -35 18 -41 2z"/>
<path d="M765 1119 c-38 -33 -71 -66 -73 -73 -4 -17 132 -131 155 -131 34 0
22 25 -36 75 l-60 52 59 50 c33 27 60 53 60 57 0 8 -22 31 -29 31 -4 -1 -37
-28 -76 -61z"/>
<path d="M1133 1154 c-4 -12 9 -30 43 -60 27 -24 52 -43 57 -44 18 -1 3 -20
-48 -61 -53 -42 -71 -79 -39 -79 22 0 154 111 154 129 0 17 -131 131 -150 131
-6 0 -13 -7 -17 -16z"/>
<path d="M973 290 c-31 -13 -40 -55 -18 -80 23 -25 57 -26 78 -2 22 25 21 48
-3 72 -22 22 -25 23 -57 10z"/>
</g>
</svg>
