<?xml version="1.0" standalone="no"?>
<!DOCTYPE svg PUBLIC "-//W3C//DTD SVG 20010904//EN"
 "http://www.w3.org/TR/2001/REC-SVG-20010904/DTD/svg10.dtd">
<svg version="1.0" xmlns="http://www.w3.org/2000/svg"
 width="200.000000pt" height="200.000000pt" viewBox="0 0 200.000000 200.000000"
 preserveAspectRatio="xMidYMid meet">

<g transform="translate(0.000000,200.000000) scale(0.100000,-0.100000)"
fill="#000000" stroke="none">
<path d="M820 1885 c-186 -38 -342 -125 -471 -263 -81 -86 -120 -140 -165
-235 -57 -121 -75 -197 -81 -344 -6 -147 3 -213 44 -335 20 -59 31 -78 45 -78
23 0 23 3 -2 69 -53 139 -69 347 -36 485 64 269 227 475 471 592 141 69 194
79 385 78 152 0 172 -2 245 -27 44 -15 108 -41 143 -59 68 -36 172 -108 172
-120 0 -5 -22 -8 -50 -8 -37 0 -50 -4 -50 -14 0 -11 19 -15 81 -18 44 -2 84 1
90 7 10 10 13 124 3 149 -3 9 -12 16 -20 16 -10 0 -14 -15 -14 -55 l0 -54 -66
50 c-111 83 -250 144 -388 168 -80 15 -256 12 -336 -4z"/>
<path d="M913 1655 c-102 -31 -167 -88 -212 -185 -21 -46 -26 -74 -29 -167
l-4 -112 -47 -3 -46 -3 0 -323 0 -324 28 -24 28 -24 374 0 373 0 26 31 26 31
-2 316 -3 317 -47 3 -48 3 0 93 c0 105 -16 170 -59 238 -73 114 -231 173 -358
133z m208 -52 c55 -25 112 -82 141 -142 18 -37 23 -67 26 -158 l4 -113 -291 0
-291 0 0 93 c0 134 18 187 89 258 41 41 72 62 107 73 62 20 156 15 215 -11z
m269 -746 c0 -237 -3 -297 -14 -313 -14 -18 -30 -19 -376 -19 -346 0 -362 1
-376 19 -11 16 -14 76 -14 313 l0 293 390 0 390 0 0 -293z"/>
<path d="M960 968 c-14 -7 -33 -30 -43 -50 -16 -33 -17 -40 -3 -72 8 -20 26
-41 40 -47 21 -10 26 -20 28 -63 2 -39 7 -52 21 -54 14 -3 17 4 17 50 0 48 3
54 30 70 35 20 53 60 45 98 -13 58 -85 93 -135 68z m80 -48 c11 -11 20 -29 20
-40 0 -24 -34 -60 -57 -60 -23 0 -63 39 -63 62 0 24 35 58 60 58 11 0 29 -9
40 -20z"/>
<path d="M1783 1383 c3 -16 19 -66 36 -113 119 -337 -4 -738 -292 -956 -73
-55 -217 -127 -302 -150 -35 -10 -116 -19 -193 -21 -113 -5 -147 -2 -228 17
-114 26 -270 100 -335 159 l-44 40 53 1 c38 0 52 4 52 14 0 11 -19 15 -81 18
-46 2 -84 -1 -88 -7 -3 -5 -5 -45 -3 -87 3 -59 7 -78 18 -78 10 0 14 13 14 50
0 28 2 50 5 50 3 0 29 -18 58 -39 234 -176 562 -230 835 -137 264 90 474 297
564 556 65 188 65 414 0 600 -30 84 -44 110 -60 110 -10 0 -13 -8 -9 -27z"/>
</g>
</svg>
