<?xml version="1.0" standalone="no"?>
<!DOCTYPE svg PUBLIC "-//W3C//DTD SVG 20010904//EN"
 "http://www.w3.org/TR/2001/REC-SVG-20010904/DTD/svg10.dtd">
<svg version="1.0" xmlns="http://www.w3.org/2000/svg"
 width="200.000000pt" height="200.000000pt" viewBox="0 0 200.000000 200.000000"
 preserveAspectRatio="xMidYMid meet">

<g transform="translate(0.000000,200.000000) scale(0.100000,-0.100000)"
fill="#000000" stroke="none">
<path d="M956 1590 c-15 -5 -37 -17 -48 -27 -48 -43 -48 -43 -48 -543 l0 -470
-25 -38 c-46 -70 -43 -165 9 -235 26 -35 110 -77 155 -77 58 0 136 42 168 91
24 36 28 53 28 109 0 56 -4 73 -27 108 l-28 42 0 472 c0 451 -1 474 -20 505
-34 56 -102 82 -164 63z m84 -70 c37 -20 40 -59 40 -537 l0 -464 25 -37 c63
-92 3 -212 -105 -212 -109 0 -171 133 -100 213 l30 35 0 486 c0 473 1 487 20
506 22 22 60 26 90 10z"/>
<path d="M970 735 c0 -255 -1 -267 -21 -294 -17 -24 -19 -35 -12 -58 19 -58
102 -64 123 -8 10 26 0 68 -19 80 -7 4 -11 96 -11 276 l0 269 -30 0 -30 0 0
-265z"/>
<path d="M1200 1365 l0 -35 65 0 65 0 0 35 0 35 -65 0 -65 0 0 -35z"/>
<path d="M1200 1235 l0 -35 65 0 65 0 0 35 0 35 -65 0 -65 0 0 -35z"/>
<path d="M1200 1100 l0 -30 65 0 65 0 0 30 0 30 -65 0 -65 0 0 -30z"/>
<path d="M1200 965 l0 -35 65 0 65 0 0 35 0 35 -65 0 -65 0 0 -35z"/>
<path d="M1200 835 l0 -35 65 0 65 0 0 35 0 35 -65 0 -65 0 0 -35z"/>
</g>
</svg>
