<?xml version="1.0" standalone="no"?>
<!DOCTYPE svg PUBLIC "-//W3C//DTD SVG 20010904//EN"
 "http://www.w3.org/TR/2001/REC-SVG-20010904/DTD/svg10.dtd">
<svg version="1.0" xmlns="http://www.w3.org/2000/svg"
 width="200.000000pt" height="200.000000pt" viewBox="0 0 200.000000 200.000000"
 preserveAspectRatio="xMidYMid meet">

<g transform="translate(0.000000,200.000000) scale(0.100000,-0.100000)"
fill="#000000" stroke="none">
<path d="M353 1993 c-43 -8 -71 -53 -177 -287 -118 -262 -122 -278 -68 -329
15 -14 101 -60 191 -101 l164 -74 1 -94 c1 -113 24 -168 99 -240 l50 -48 -70
-177 -70 -178 -162 -3 -161 -2 0 253 c0 183 -3 256 -12 265 -18 18 -46 14 -58
-7 -15 -30 -14 -933 2 -949 17 -17 55 -15 62 4 3 9 6 92 6 185 l0 169 171 0
c94 0 178 4 188 10 12 6 48 84 95 204 l77 195 72 -1 c40 0 90 5 113 11 51 14
128 64 155 102 11 16 25 29 30 29 5 0 84 -34 175 -75 91 -41 173 -75 182 -75
9 0 37 21 63 46 l47 46 91 -41 c50 -23 98 -41 106 -41 8 0 21 10 29 23 27 40
126 268 126 288 0 11 -13 27 -30 38 l-30 18 60 56 c33 31 60 60 60 65 0 4 -6
15 -12 24 -14 17 -1478 683 -1518 690 -14 3 -35 3 -47 1z m716 -379 c372 -169
693 -315 714 -326 l38 -19 -158 -152 c-87 -84 -183 -176 -213 -204 l-56 -52
-619 282 c-460 209 -621 287 -623 300 -2 10 33 100 79 200 114 252 127 277
146 277 9 0 320 -138 692 -306z m-314 -545 c110 -50 205 -95 210 -101 14 -14
-64 -82 -113 -96 -54 -17 -126 -15 -170 4 -69 29 -130 104 -147 182 -7 36 1
102 13 102 5 0 98 -41 207 -91z m1025 9 c0 -20 -83 -198 -92 -198 -5 0 -32 12
-60 26 l-51 26 84 79 c79 73 119 96 119 67z"/>
<path d="M459 1754 c-9 -11 -10 -20 -2 -32 5 -10 112 -63 236 -120 240 -109
271 -117 265 -64 -3 24 -23 36 -227 129 -123 57 -232 103 -241 103 -10 0 -23
-7 -31 -16z"/>
<path d="M1076 1475 c-32 -33 -20 -45 108 -104 116 -55 137 -59 156 -36 22 27
2 46 -102 94 -134 63 -142 65 -162 46z"/>
</g>
</svg>
